<svg id="visual" viewBox="0 0 960 540" width="960" height="540" xmlns="http://www.w3.org/2000/svg" xmlns:xlink="http://www.w3.org/1999/xlink" version="1.1"><path d="M0 50L107 50L107 28L213 28L213 6L320 6L320 50L427 50L427 66L533 66L533 6L640 6L640 6L747 6L747 28L853 28L853 12L960 12L960 66L960 0L960 0L853 0L853 0L747 0L747 0L640 0L640 0L533 0L533 0L427 0L427 0L320 0L320 0L213 0L213 0L107 0L107 0L0 0Z" fill="#1b0d54"></path><path d="M0 98L107 98L107 147L213 147L213 125L320 125L320 114L427 114L427 114L533 114L533 66L640 66L640 109L747 109L747 50L853 50L853 50L960 50L960 136L960 64L960 10L853 10L853 26L747 26L747 4L640 4L640 4L533 4L533 64L427 64L427 48L320 48L320 4L213 4L213 26L107 26L107 48L0 48Z" fill="#30175e"></path><path d="M0 158L107 158L107 228L213 228L213 163L320 163L320 185L427 185L427 141L533 141L533 141L640 141L640 163L747 163L747 163L853 163L853 152L960 152L960 222L960 134L960 48L853 48L853 48L747 48L747 107L640 107L640 64L533 64L533 112L427 112L427 112L320 112L320 123L213 123L213 145L107 145L107 96L0 96Z" fill="#422169"></path><path d="M0 158L107 158L107 228L213 228L213 239L320 239L320 190L427 190L427 255L533 255L533 195L640 195L640 266L747 266L747 217L853 217L853 206L960 206L960 330L960 220L960 150L853 150L853 161L747 161L747 161L640 161L640 139L533 139L533 139L427 139L427 183L320 183L320 161L213 161L213 226L107 226L107 156L0 156Z" fill="#542c73"></path><path d="M0 471L107 471L107 514L213 514L213 266L320 266L320 244L427 244L427 444L533 444L533 471L640 471L640 303L747 303L747 438L853 438L853 293L960 293L960 428L960 328L960 204L853 204L853 215L747 215L747 264L640 264L640 193L533 193L533 253L427 253L427 188L320 188L320 237L213 237L213 226L107 226L107 156L0 156Z" fill="#65377d"></path><path d="M0 492L107 492L107 541L213 541L213 460L320 460L320 449L427 449L427 471L533 471L533 476L640 476L640 487L747 487L747 519L853 519L853 482L960 482L960 498L960 426L960 291L853 291L853 436L747 436L747 301L640 301L640 469L533 469L533 442L427 442L427 242L320 242L320 264L213 264L213 512L107 512L107 469L0 469Z" fill="#774388"></path><path d="M0 541L107 541L107 541L213 541L213 541L320 541L320 541L427 541L427 541L533 541L533 541L640 541L640 541L747 541L747 541L853 541L853 541L960 541L960 541L960 496L960 480L853 480L853 517L747 517L747 485L640 485L640 474L533 474L533 469L427 469L427 447L320 447L320 458L213 458L213 539L107 539L107 490L0 490Z" fill="#884f92"></path></svg>